<?xml version="1.0" standalone="no"?>
<!DOCTYPE svg PUBLIC "-//W3C//DTD SVG 20010904//EN"
 "http://www.w3.org/TR/2001/REC-SVG-20010904/DTD/svg10.dtd">
<svg version="1.0" xmlns="http://www.w3.org/2000/svg"
 width="500.000000pt" height="500.000000pt" viewBox="0 0 500.000000 500.000000"
 preserveAspectRatio="xMidYMid meet">

<g transform="translate(0.000000,500.000000) scale(0.100000,-0.100000)"
fill="#000000" stroke="none">
<path d="M2345 4989 c-265 -18 -524 -76 -758 -169 -109 -45 -229 -99 -237
-109 -3 -3 -11 -7 -19 -9 -8 -2 -27 -12 -42 -23 -15 -10 -30 -19 -33 -19 -22
0 -248 -158 -356 -249 -78 -65 -101 -87 -81 -76 10 6 12 4 7 -4 -4 -6 -11 -9
-15 -6 -12 7 -43 -30 -34 -40 5 -4 3 -5 -3 -2 -11 7 -75 -54 -160 -153 -21
-25 -41 -47 -45 -50 -8 -8 -113 -151 -148 -203 -18 -26 -29 -52 -25 -59 4 -6
3 -8 -3 -5 -6 4 -14 1 -17 -6 -3 -6 -19 -34 -36 -62 -41 -67 -99 -185 -134
-270 -15 -38 -35 -84 -42 -102 -8 -17 -14 -37 -14 -45 0 -8 -5 -19 -12 -26 -7
-7 -9 -12 -5 -12 4 0 2 -10 -4 -22 -6 -12 -18 -47 -26 -77 -8 -31 -18 -72 -24
-91 -53 -191 -85 -526 -69 -740 11 -153 30 -300 39 -300 3 0 7 -21 9 -48 2
-26 7 -60 12 -77 5 -16 21 -73 35 -125 47 -171 195 -518 215 -505 6 4 7 -1 3
-11 -5 -13 -3 -15 7 -9 9 5 11 4 6 -4 -15 -24 195 -325 320 -458 7 -7 15 -9
19 -5 5 4 5 2 2 -4 -8 -14 152 -170 261 -254 42 -33 83 -65 90 -70 7 -6 17 -8
24 -4 6 4 8 3 4 -4 -6 -10 72 -72 92 -72 6 0 12 -3 14 -8 5 -11 91 -63 188
-114 69 -37 199 -92 345 -148 74 -28 206 -62 224 -57 11 3 19 1 16 -3 -3 -5
11 -12 32 -15 21 -4 52 -10 68 -15 49 -14 181 -30 333 -40 210 -15 448 7 717
65 59 13 290 87 310 99 11 7 33 16 48 20 124 30 612 324 592 356 -3 4 2 7 9 6
19 -1 168 123 160 135 -3 5 0 8 8 7 7 -2 12 3 10 10 -1 8 2 11 7 8 12 -8 62
44 54 57 -3 5 -1 7 4 4 14 -9 85 72 76 86 -3 5 -1 7 5 3 6 -3 28 15 49 41 21
27 40 50 43 53 18 16 109 150 103 150 -5 0 -3 4 4 8 16 10 66 85 51 76 -7 -4
-2 4 12 18 25 26 112 186 110 202 -1 5 2 12 7 15 17 12 106 231 98 240 -3 2 2
13 12 23 9 10 13 21 10 25 -4 3 -3 11 2 17 9 11 37 102 53 171 60 258 83 515
67 742 -10 147 -21 220 -64 445 -4 21 -10 36 -14 34 -3 -2 -7 8 -8 22 -2 39
-38 154 -45 147 -3 -4 -6 0 -5 7 1 34 -4 49 -15 42 -6 -4 -8 -3 -5 3 4 6 0 30
-8 53 -29 81 -108 250 -117 250 -5 0 -7 4 -4 8 3 5 -6 25 -19 45 -14 20 -25
39 -25 42 0 13 -114 181 -189 280 -78 102 -279 311 -365 381 -27 21 -54 44
-60 49 -47 42 -207 152 -301 205 -57 33 -255 132 -268 134 -7 2 -32 12 -57 23
-78 35 -210 75 -226 69 -8 -3 -13 -2 -10 3 9 14 -215 68 -235 56 -5 -4 -9 -2
-9 3 0 5 -37 14 -82 21 -86 12 -338 32 -373 30 -11 -1 -74 -5 -140 -10z m313
-134 c2 -28 4 -27 -103 -25 -78 2 -86 4 -79 25 4 10 29 15 92 18 48 1 87 4 87
5 0 1 2 -9 3 -23z m-303 -15 c0 -11 -17 -17 -62 -22 -35 -4 -66 -9 -70 -11 -5
-3 -19 -1 -31 4 -41 16 -19 34 49 40 92 9 114 6 114 -11z m540 -4 c52 -9 71
-17 73 -29 3 -15 -7 -21 -28 -19 -78 7 -149 22 -156 33 -8 14 5 29 24 28 9 0
48 -6 87 -13z m-847 -33 c-2 -12 -25 -22 -73 -35 -85 -21 -105 -22 -105 -4 0
18 93 49 163 55 12 1 17 -5 15 -16z m1127 -32 c6 -4 29 -13 52 -21 46 -14 66
-40 32 -40 -19 0 -159 38 -168 46 -2 2 -1 9 2 17 5 14 61 12 82 -2z m-1415
-45 c0 -7 -32 -26 -74 -42 -41 -15 -72 -32 -69 -37 3 -5 -4 -4 -16 3 -33 17
-22 31 50 61 72 31 109 36 109 15z m1712 -65 c61 -27 82 -45 75 -64 -5 -14
-18 -11 -89 24 -98 49 -92 45 -83 59 8 13 35 8 97 -19z m-2004 -58 c-2 -9 -21
-26 -43 -38 -22 -11 -43 -24 -47 -30 -4 -5 -8 -7 -8 -2 0 4 -12 0 -26 -9 -22
-15 -27 -15 -34 -3 -11 17 -9 20 65 62 68 40 98 46 93 20z m2266 -85 c40 -29
62 -36 50 -16 -4 7 -3 8 5 4 6 -4 9 -11 6 -16 -3 -5 2 -13 11 -18 18 -10 11
-32 -10 -32 -18 0 -135 80 -146 100 -14 26 36 13 84 -22z m-2524 -69 c0 -12
-141 -110 -151 -104 -19 12 -7 26 61 76 38 28 67 56 64 63 -3 6 2 2 10 -8 9
-11 16 -23 16 -27z m2788 -120 c66 -52 79 -80 37 -77 -13 1 -22 4 -20 6 2 3
-21 24 -51 49 -51 42 -69 73 -41 73 6 -1 40 -23 75 -51z m-1995 -56 c19 -12
-9 -23 -58 -23 -54 0 -79 15 -54 31 13 9 94 3 112 -8z m-1037 -4 c7 -12 -111
-124 -130 -124 -6 0 -12 10 -12 22 -1 12 2 21 6 18 4 -2 28 18 54 45 48 50 69
60 82 39z m877 -4 c-2 -12 -93 -37 -112 -30 -18 7 3 32 32 38 36 8 82 3 80 -8z
m967 1 c0 -10 -16 -15 -52 -18 -55 -5 -75 2 -64 21 11 17 116 14 116 -3z m143
-8 c31 -16 7 -30 -40 -23 -62 9 -73 14 -66 31 4 12 15 14 47 8 22 -3 49 -11
59 -16z m-815 -26 c40 -26 10 -36 -47 -15 -47 16 -60 30 -45 46 7 7 61 -11 92
-31z m515 14 c3 -14 -90 -49 -109 -42 -23 9 -8 23 42 41 42 15 64 16 67 1z
m-961 -21 c1 -13 -71 -55 -95 -55 -29 0 -15 23 29 47 40 23 64 26 66 8z m1386
-18 c30 -18 44 -47 22 -47 -13 0 -89 40 -96 51 -9 15 6 29 24 22 9 -4 32 -15
50 -26z m-857 -20 c68 -53 72 -58 62 -68 -8 -8 -24 -2 -57 21 -46 34 -52 41
-39 53 9 10 15 8 34 -6z m285 2 c7 -13 -62 -78 -83 -79 -25 0 -12 28 25 59 41
34 48 36 58 20z m1678 -25 c3 -8 11 -12 17 -8 7 4 9 3 6 -3 -4 -6 11 -27 33
-47 42 -38 52 -66 23 -66 -20 0 -123 107 -123 127 0 18 37 16 44 -3z m-2628
-15 c3 -6 -12 -30 -35 -52 -32 -33 -43 -39 -53 -29 -9 9 -4 21 27 52 42 43 50
46 61 29z m1643 -34 c34 -39 39 -55 17 -55 -18 0 -87 71 -80 82 11 17 33 7 63
-27z m-844 -36 c9 15 35 14 35 -2 0 -8 -10 -23 -23 -35 l-23 -22 -23 26 c-28
33 -21 66 8 40 13 -11 21 -14 26 -7z m-1608 -47 c-3 -15 -9 -26 -14 -25 -5 1
-27 -20 -48 -48 -39 -48 -65 -63 -65 -35 0 7 9 25 21 40 11 14 17 30 14 36 -4
6 -2 9 3 8 5 -2 23 12 40 30 35 37 55 35 49 -6z m705 2 c7 -6 -38 -91 -53 -99
-5 -4 -14 -3 -19 0 -7 4 0 25 16 56 25 45 42 58 56 43z m1844 -52 c23 -40 24
-62 4 -62 -9 0 -60 86 -60 102 0 23 34 -1 56 -40z m1124 -97 c46 -65 53 -86
34 -92 -11 -4 -114 127 -114 146 0 30 40 4 80 -54z m-3038 -10 c-9 -56 -24
-96 -35 -92 -14 4 -13 45 2 115 1 2 9 2 19 0 10 -2 16 -11 14 -23z m1971 -57
c5 -37 4 -48 -7 -48 -16 0 -41 92 -32 117 6 15 8 15 20 -3 7 -10 16 -40 19
-66z m-2793 -16 c0 -10 -5 -23 -12 -30 -7 -7 -8 -12 -2 -12 5 0 4 -4 -1 -8
-23 -15 -56 -72 -49 -83 4 -7 3 -9 -4 -5 -5 3 -12 0 -15 -6 -4 -10 -8 -9 -20
2 -15 14 -12 22 29 88 44 69 74 92 74 54z m798 -121 c2 -48 0 -62 -10 -59 -8
3 -14 27 -16 67 -2 48 0 62 10 59 8 -3 14 -27 16 -67z m2006 -18 c-6 -32 -14
-48 -24 -48 -12 0 -14 11 -11 55 4 67 9 76 28 57 12 -12 14 -25 7 -64z m1190
20 c4 -10 20 -43 36 -73 34 -61 38 -83 13 -78 -19 3 -96 145 -87 159 9 15 31
10 38 -8z m-3171 -120 c19 -90 19 -93 4 -93 -14 0 -49 97 -40 113 10 17 31 5
36 -20z m1954 -15 c-9 -54 -25 -88 -42 -88 -11 0 -15 6 -11 18 2 9 10 36 17
60 15 52 45 60 36 10z m-2922 -7 c3 -5 1 -12 -5 -16 -6 -4 -8 -11 -5 -16 4 -5
2 -9 -3 -9 -6 0 -18 -23 -28 -51 -21 -56 -39 -78 -55 -62 -6 6 -3 26 10 56 11
26 21 51 22 55 9 36 50 65 64 43z m3245 -53 c-1 -14 -33 -106 -75 -213 -15
-38 -33 -86 -40 -105 -8 -19 -34 -84 -58 -145 l-45 -109 48 -28 c30 -17 58
-44 78 -75 30 -48 70 -168 59 -180 -13 -12 -37 8 -37 31 0 41 -45 130 -85 169
-49 47 -69 53 -95 27 -22 -22 -52 -15 -64 15 -5 14 -9 14 -43 0 -21 -9 -51
-28 -66 -43 -31 -29 -92 -112 -82 -112 3 0 -3 -10 -15 -22 -11 -12 -20 -26
-20 -30 0 -22 -87 -142 -131 -182 -75 -67 -129 -90 -224 -94 -102 -5 -160 18
-205 79 -24 34 -30 52 -30 94 0 44 5 59 35 98 35 46 65 64 85 52 7 -4 -7 -24
-33 -49 -50 -47 -64 -89 -47 -139 30 -94 159 -133 284 -87 80 30 159 111 237
244 90 153 177 236 249 236 14 0 26 15 41 48 12 26 75 156 140 290 106 215
140 271 139 230z m-2214 -101 c23 -55 22 -76 -2 -56 -17 14 -44 73 -44 95 0
32 27 10 46 -39z m1839 33 c8 -13 -36 -103 -52 -108 -19 -6 -16 22 9 73 22 46
32 53 43 35z m1429 -88 c21 -54 25 -77 17 -85 -13 -13 -33 3 -38 30 -1 10 -14
45 -27 78 -18 44 -22 62 -13 67 17 11 30 -8 61 -90z m-3200 -67 c9 -19 21 -37
26 -40 15 -9 12 -35 -5 -35 -17 0 -69 85 -60 100 11 18 22 11 39 -25z m1701
16 c9 -15 -48 -100 -67 -101 -24 0 -23 6 13 62 31 48 43 56 54 39z m-2922 -23
c2 -7 0 -22 -4 -33 -5 -11 -16 -46 -25 -78 -12 -44 -20 -57 -32 -55 -10 2 -17
10 -17 18 -1 15 18 82 37 133 11 28 33 36 41 15z m1297 -101 c0 -6 13 -25 30
-42 21 -21 27 -34 20 -45 -7 -12 -12 -11 -30 5 -36 33 -60 72 -54 88 6 17 34
12 34 -6z m1540 -16 c0 -4 -14 -26 -31 -49 -30 -41 -59 -55 -59 -29 0 23 62
96 76 90 8 -3 14 -8 14 -12z m1663 -69 c26 -94 26 -116 -2 -120 -13 -2 -21 0
-18 5 3 5 1 29 -4 54 -26 114 -27 127 -9 122 12 -3 23 -25 33 -61z m-3079 -62
c37 -41 43 -55 27 -64 -16 -10 -97 77 -87 93 12 18 22 13 60 -29z m1306 6 c0
-19 -69 -88 -81 -80 -15 9 -11 19 24 57 33 38 57 47 57 23z m-2805 -45 c-3 -5
-1 -13 5 -16 7 -4 7 -11 2 -18 -5 -7 -15 -42 -22 -80 -13 -70 -18 -80 -38 -69
-17 11 11 162 34 179 21 15 27 17 19 4z m1615 -73 c41 -34 51 -58 24 -58 -19
0 -84 59 -84 77 0 21 19 15 60 -19z m1080 8 c0 -17 -68 -76 -87 -76 -24 0 -13
24 25 57 40 35 62 42 62 19z m-962 -107 c40 -29 55 -59 31 -59 -19 0 -100 71
-94 81 9 14 18 11 63 -22z m2897 19 c2 -7 6 -52 9 -100 4 -84 4 -87 -15 -78
-12 7 -19 21 -19 39 0 15 -3 56 -6 90 -6 53 -5 61 10 61 9 0 19 -6 21 -12z
m-2055 -12 c0 -14 -75 -76 -92 -76 -21 0 -3 38 30 62 42 30 62 35 62 14z
m-670 -133 c0 -23 -18 -22 -59 5 -23 15 -41 34 -41 45 0 16 5 15 50 -10 27
-15 50 -33 50 -40z m-1950 -99 c0 -86 -2 -95 -17 -92 -16 3 -18 16 -19 94 -1
80 1 90 18 91 16 2 18 -7 18 -93z m2045 54 c42 -21 56 -40 37 -52 -12 -7 -114
53 -107 64 9 14 19 13 70 -12z m2647 -198 c-2 -47 -7 -89 -13 -94 -19 -20 -26
11 -21 97 4 74 7 87 21 85 14 -3 16 -16 13 -88z m-4679 -154 c9 -84 5 -109
-16 -100 -10 4 -16 29 -19 87 -6 86 -3 100 15 94 7 -2 16 -38 20 -81z m4663
-98 c-4 -18 -9 -53 -12 -78 -4 -25 -11 -53 -16 -64 -8 -15 -12 -16 -23 -5 -10
11 -12 26 -5 64 5 28 12 65 15 83 4 24 11 32 26 32 17 0 19 -5 15 -32z m-1680
-50 c3 -4 13 -8 22 -8 26 0 90 -57 112 -101 11 -21 20 -41 20 -44 0 -3 -16 -5
-35 -5 -28 0 -38 5 -46 24 -21 46 -68 71 -136 71 -67 0 -98 -15 -137 -69 -29
-39 -29 -143 0 -182 31 -42 67 -65 111 -71 47 -6 117 13 107 29 -4 6 -3 8 2 5
13 -8 26 2 53 41 22 32 63 44 76 21 10 -14 -19 -69 -52 -101 -43 -41 -98 -60
-175 -59 -61 0 -74 4 -116 33 -26 18 -51 32 -55 30 -5 -1 -6 2 -2 8 3 5 -3 24
-15 40 -18 25 -22 45 -22 110 0 68 3 85 26 124 28 49 73 87 121 104 35 12 133
13 141 0z m-2167 -40 c32 -72 161 -391 161 -400 0 -4 -13 -8 -29 -8 -32 0 -61
30 -61 62 0 10 -5 18 -11 18 -5 0 -7 5 -4 10 4 6 -31 10 -98 10 l-105 0 -12
-31 c-8 -17 -13 -37 -13 -45 0 -8 -4 -14 -9 -14 -5 0 -7 -4 -4 -8 2 -4 -11 -6
-30 -4 -36 4 -44 24 -25 60 11 20 98 228 136 325 25 61 30 67 56 67 24 0 32
-7 48 -42z m331 -27 c24 -38 47 -68 51 -66 3 2 6 -1 6 -8 0 -14 48 -92 61
-101 8 -5 26 20 131 186 32 51 40 58 69 58 l32 0 -2 -222 -3 -223 -32 -3 -32
-3 -3 155 -3 156 -63 -95 c-55 -84 -66 -95 -92 -95 -26 0 -36 11 -91 95 -33
52 -63 95 -66 95 -2 0 -4 -12 -3 -27 1 -16 2 -86 1 -156 l-1 -128 -32 3 -33 3
-3 210 c-1 115 0 215 2 222 3 7 18 13 33 13 24 0 35 -11 73 -69z m528 -153
l-3 -223 -30 0 -30 0 -3 210 c-1 115 0 215 2 222 3 7 19 13 36 13 l30 0 -2
-222z m336 212 c51 -11 115 -57 139 -97 25 -44 33 -131 16 -190 -17 -64 -78
-124 -142 -140 -26 -7 -88 -13 -137 -13 l-90 0 0 225 0 225 88 0 c48 0 105 -5
126 -10z m318 -157 c2 -122 6 -167 16 -171 6 -2 12 -9 12 -16 0 -18 44 -36 85
-36 21 0 44 9 62 24 l28 24 5 169 5 168 33 3 32 3 0 -163 c-1 -149 -2 -167
-23 -207 -33 -65 -73 -84 -161 -77 -89 6 -96 7 -96 18 0 5 -5 6 -10 3 -6 -4
-9 -3 -8 2 1 4 -6 20 -16 35 -10 15 -22 45 -27 65 -10 44 -12 307 -2 316 3 4
19 7 34 7 l28 0 3 -167z m958 -59 l0 -225 -32 3 c-19 2 -33 8 -32 16 1 6 2
107 3 222 l1 210 30 0 30 0 0 -226z m390 196 l0 -29 -102 -3 -103 -3 0 -60 0
-60 98 -3 97 -3 0 -29 0 -29 -97 -3 -98 -3 -1 -55 c-1 -30 1 -60 3 -66 3 -7
41 -12 105 -13 56 -1 105 -4 108 -6 4 -3 7 -15 6 -27 -1 -23 -3 -23 -143 -26
l-143 -3 0 226 0 225 135 0 135 0 0 -30z m170 -160 l0 -189 103 -3 102 -3 3
-33 3 -33 -138 3 -138 3 -3 210 c-1 115 0 215 2 222 3 7 19 13 36 13 l30 0 0
-190z m-3814 103 c4 -10 6 -22 5 -26 -1 -4 6 -35 14 -69 16 -59 10 -89 -13
-75 -13 9 -45 153 -38 172 7 20 22 19 32 -2z m4564 -160 c0 -47 -39 -153 -57
-153 -22 0 -22 16 5 98 26 81 52 108 52 55z m-4465 -187 c13 -33 27 -73 31
-89 5 -24 3 -28 -12 -25 -18 3 -74 124 -74 160 0 39 31 12 55 -46z m4354 -139
c-28 -71 -52 -111 -64 -106 -5 2 -9 13 -9 24 2 20 25 86 34 95 3 3 11 17 19
32 11 21 17 25 27 17 11 -9 9 -21 -7 -62z m-4249 -97 c11 -11 20 -22 20 -25 0
-3 0 -10 0 -16 0 -5 4 -7 10 -4 5 3 7 0 4 -8 -3 -8 4 -30 15 -48 26 -42 26
-49 3 -49 -11 0 -28 20 -47 54 -16 30 -32 53 -35 51 -3 -2 -6 12 -7 31 -3 39
8 43 37 14z m4130 -133 c0 -7 -16 -36 -35 -66 -19 -29 -35 -56 -35 -61 0 -12
-32 -22 -42 -12 -9 9 65 140 85 154 14 8 27 1 27 -15z m-3981 -123 c4 3 8 0 8
-7 0 -21 35 -67 46 -60 6 3 7 1 3 -5 -4 -7 2 -22 14 -34 22 -24 22 -43 -1 -43
-15 0 -109 121 -109 141 0 14 23 25 28 12 2 -4 7 -6 11 -4z m3806 -124 c3 -5
-14 -35 -39 -66 -26 -31 -50 -63 -55 -72 -9 -16 -11 -16 -26 -1 -14 14 -13 18
15 50 16 19 40 49 53 66 22 33 41 41 52 23z m-3572 -166 c53 -53 73 -94 45
-94 -19 0 -128 112 -128 132 0 31 23 20 83 -38z m3373 -65 c9 -15 -111 -135
-135 -135 -30 0 -15 26 52 88 65 61 72 65 83 47z m-3201 -109 c4 -6 12 -7 18
-4 7 4 9 4 5 -1 -4 -4 15 -25 43 -46 27 -22 49 -44 49 -50 0 -22 -31 -20 -61
5 -17 14 -36 23 -41 20 -6 -4 -8 -2 -4 4 3 6 -7 20 -24 32 -16 12 -30 28 -30
36 0 16 36 19 45 4z m2973 -101 c1 -8 -17 -26 -41 -41 -24 -15 -54 -37 -67
-48 -13 -11 -31 -19 -39 -18 -28 6 -22 26 16 49 21 12 54 35 73 51 36 29 53
31 58 7z m-2694 -104 c30 -19 59 -35 64 -35 15 0 31 -22 25 -36 -8 -21 -24
-17 -80 19 -28 17 -59 37 -69 43 -11 6 -15 17 -11 27 8 22 8 22 71 -18z m2440
-60 c6 -17 -97 -82 -145 -92 -56 -11 -30 23 49 65 88 47 88 47 96 27z m-2187
-79 c15 -8 45 -22 65 -31 42 -17 55 -32 41 -46 -6 -6 -30 -1 -64 13 -70 29
-99 47 -99 64 0 18 21 18 57 0z m1908 -57 c8 -11 -22 -38 -43 -39 -7 0 -32 -9
-54 -20 -53 -25 -78 -26 -78 -1 0 14 12 22 45 32 25 7 45 17 45 22 0 4 3 6 8
4 4 -3 16 -1 27 4 28 11 43 11 50 -2z m-1505 -105 c0 -23 -29 -23 -100 0 -80
26 -103 42 -82 55 17 11 182 -39 182 -55z m1210 -10 c-11 -12 -97 -34 -145
-37 -20 -1 -30 3 -30 12 0 10 27 21 85 35 82 20 112 17 90 -10z m-1015 -18
c17 -2 47 -7 68 -11 29 -5 37 -10 35 -23 -2 -13 -14 -17 -45 -17 -22 0 -39 3
-36 8 2 4 -9 7 -26 7 -16 0 -42 5 -56 10 -23 9 -25 13 -15 25 7 9 20 13 29 11
9 -2 30 -7 46 -10z m721 -27 c12 -20 -11 -28 -99 -32 -78 -4 -88 -3 -85 12 2
11 18 18 53 22 85 10 124 9 131 -2z m-308 -24 c-3 -19 -9 -20 -88 -17 -47 2
-89 7 -94 12 -19 19 7 26 94 26 85 -1 90 -2 88 -21z"/>
<path d="M933 1983 c-38 -87 -53 -126 -53 -134 0 -5 34 -9 75 -9 41 0 75 1 75
3 0 12 -70 162 -77 164 -4 2 -13 -9 -20 -24z"/>
<path d="M2040 1905 l0 -155 76 0 c47 0 73 4 69 10 -3 5 0 7 9 4 9 -4 29 8 51
29 64 62 58 178 -13 236 -34 29 -42 31 -114 31 l-78 0 0 -155z"/>
</g>
</svg>
